<svg viewBox="0 0 100 101" fill="none" xmlns="http://www.w3.org/2000/svg">
    <path
    d="M36.9688 15.7288C41.9415 15.7272 46.8203 17.0825 51.0798 19.6486C55.3392 22.2147 58.8178 25.8944 61.1406 30.2913C63.9938 28.6232 67.1933 27.6358 70.4903 27.406C73.7873 27.1762 77.0929 27.7102 80.1498 28.9663C83.2068 30.2225 85.9328 32.167 88.1156 34.6485C90.2985 37.1301 91.8794 40.0817 92.7354 43.274C93.5914 46.4662 93.6994 49.8128 93.0509 53.0536C92.4025 56.2944 91.0152 59.3418 88.9968 61.9589C86.9784 64.576 84.3835 66.6922 81.4139 68.1428C78.4442 69.5934 75.18 70.3393 71.875 70.3225L36.8906 70.4163C29.6386 70.4163 22.6836 67.5354 17.5557 62.4075C12.4277 57.2795 9.54687 50.3245 9.54688 43.0725C9.54687 35.8205 12.4277 28.8655 17.5557 23.7376C22.6836 18.6096 29.6386 15.7288 36.8906 15.7288H36.9688Z"
    fill="url(#paint0_linear_314_82)"
    />
    <path
    d="M36.9688 16.2288L36.9689 16.2288C41.8506 16.2272 46.6403 17.5577 50.8218 20.0769C55.0033 22.5961 58.4182 26.2084 60.6985 30.5248L60.9424 30.9864L61.393 30.7229C64.1797 29.0936 67.3048 28.1293 70.5251 27.9048C73.7453 27.6804 76.974 28.2019 79.9598 29.4288C82.9456 30.6557 85.6081 32.555 87.7402 34.9787C89.8723 37.4025 91.4164 40.2855 92.2525 43.4035C93.0885 46.5214 93.194 49.7902 92.5607 52.9555C91.9273 56.1208 90.5723 59.0974 88.6009 61.6536C86.6295 64.2098 84.0949 66.2767 81.1944 67.6935C78.2939 69.1104 75.1056 69.8389 71.8775 69.8225L71.8737 69.8225L36.8906 69.9163C36.8902 69.9163 36.8897 69.9163 36.8893 69.9163C29.7704 69.9159 22.9431 67.0878 17.9092 62.0539C12.875 57.0197 10.0469 50.1919 10.0469 43.0725C10.0469 35.9531 12.875 29.1253 17.9092 24.0911C22.9434 19.0569 29.7712 16.2288 36.8906 16.2288H36.9688Z"
    stroke="#8FDAFF"
    stroke-opacity="0.1"
    />
    <path
    d="M92.6525 54.6263C95.8453 43.1985 89.1696 31.346 77.7417 28.1532C66.3139 24.9603 54.4615 31.6361 51.2686 43.0639C48.0758 54.4918 54.7515 66.3442 66.1794 69.537C77.6072 72.7299 89.4596 66.0541 92.6525 54.6263Z"
    fill="url(#paint1_linear_314_82)"
    />
    <path
    d="M77.6072 28.6347C88.7691 31.7533 95.2895 43.3299 92.1709 54.4917C89.0524 65.6536 77.4758 72.174 66.3139 69.0555C55.152 65.9369 48.6316 54.3604 51.7502 43.1985C54.8687 32.0366 66.4453 25.5162 77.6072 28.6347Z"
    stroke="#8FDAFF"
    stroke-opacity="0.1"
    />
    <path
    d="M68.0156 63.5413C69.0435 63.5536 70.0251 63.9706 70.7475 64.7018C71.47 65.433 71.8751 66.4196 71.875 67.4475C71.875 68.4835 71.4635 69.4771 70.7309 70.2096C69.9983 70.9422 69.0048 71.3538 67.9688 71.3538H35.1562C33.913 71.3538 32.7208 71.8476 31.8417 72.7267C30.9626 73.6058 30.4688 74.7981 30.4688 76.0413C30.4688 77.2845 30.9626 78.4767 31.8417 79.3558C32.7208 80.2349 33.913 80.7288 35.1562 80.7288H66.0156C66.8444 80.7288 67.6393 81.058 68.2253 81.6441C68.8114 82.2301 69.1406 83.025 69.1406 83.8538V83.9788C69.1406 84.8076 68.8114 85.6024 68.2253 86.1885C67.6393 86.7745 66.8444 87.1038 66.0156 87.1038H63.2812"
    stroke="#A5A9AA"
    stroke-width="3"
    stroke-miterlimit="10"
    stroke-linecap="round"
    />
    <path
    d="M80.4688 83.8538C81.2976 83.8538 82.0924 83.5245 82.6785 82.9385C83.2645 82.3524 83.5938 81.5576 83.5938 80.7288C83.5938 79.9 83.2645 79.1051 82.6785 78.519C82.0924 77.933 81.2976 77.6038 80.4688 77.6038H74.2188"
    stroke="#B9C1C6"
    stroke-width="3"
    stroke-miterlimit="10"
    stroke-linecap="round"
    />
    <defs>
    <linearGradient id="paint0_linear_314_82" x1="30.0781" y1="72.7444" x2="63.0313" y2="30.0725" gradientUnits="userSpaceOnUse">
        <stop stop-color="#75D1FF" stop-opacity="0.95" />
        <stop offset="1" stop-color="#EBF8FF" />
    </linearGradient>
    <linearGradient id="paint1_linear_314_82" x1="80.7457" y1="41.2087" x2="55.8424" y2="62.8689" gradientUnits="userSpaceOnUse">
        <stop offset="0.02" stop-color="#8FDAFF" />
        <stop offset="1" stop-color="#E0F5FF" stop-opacity="0" />
    </linearGradient>
    </defs>
</svg>