<svg width="101" height="101" viewBox="0 0 101 101" fill="none" xmlns="http://www.w3.org/2000/svg">
    <path d="M63.2857 5.26001L63.2857 9.26001" stroke="#FCFC07" stroke-width="3" stroke-miterlimit="10" stroke-linecap="round"/>
    <path d="M63.2857 53.26C74.3314 53.26 83.2857 44.3057 83.2857 33.26C83.2857 22.2143 74.3314 13.26 63.2857 13.26C52.24 13.26 43.2857 22.2143 43.2857 33.26C43.2857 44.3057 52.24 53.26 63.2857 53.26Z" fill="#FCFC07"/>
    <path d="M91.2857 33.26L87.2857 33.26" stroke="#FCFC07" stroke-width="3" stroke-miterlimit="10" stroke-linecap="round"/>
    <path d="M83.7857 13.26L80.2857 16.76" stroke="#FCFC07" stroke-width="3" stroke-miterlimit="10" stroke-linecap="round"/>
    <path d="M46.7857 16.76L43.2857 13.26" stroke="#FCFC07" stroke-width="3" stroke-miterlimit="10" stroke-linecap="round"/>
    <path d="M37.0045 25.1038C41.9851 25.0937 46.8738 26.4449 51.1423 29.0115C55.4107 31.5781 58.8966 35.2624 61.2232 39.6663C64.0735 37.9998 67.2696 37.0126 70.5632 36.7815C73.8568 36.5504 77.1594 37.0815 80.2145 38.3336C83.2696 39.5856 85.995 41.525 88.1792 44.0011C90.3633 46.4773 91.9473 49.4234 92.8083 52.611C93.6692 55.7985 93.7839 59.1415 93.1435 62.3805C92.503 65.6196 91.1246 68.6674 89.1154 71.2874C87.1061 73.9074 84.5201 76.029 81.558 77.4876C78.5959 78.9461 75.3374 79.7023 72.0357 79.6975L37.0045 79.7913C29.7524 79.7913 22.7975 76.9104 17.6695 71.7825C12.5416 66.6545 9.66071 59.6995 9.66071 52.4475C9.66071 45.1955 12.5416 38.2405 17.6695 33.1126C22.7975 27.9846 29.7524 25.1038 37.0045 25.1038Z" fill="url(#paint0_linear_314_88)"/>
    <path d="M37.0045 25.6038L37.0055 25.6038C41.895 25.5938 46.6943 26.9204 50.8846 29.44C55.075 31.9596 58.4971 35.5765 60.7811 39.8998L61.0249 40.3614L61.4756 40.0979C64.2595 38.4702 67.3812 37.506 70.5982 37.2803C73.8152 37.0545 77.0409 37.5732 80.0249 38.7962C83.0089 40.0192 85.6709 41.9134 87.8042 44.3319C89.9375 46.7504 91.4846 49.628 92.3255 52.7413C93.1665 55.8547 93.2785 59.1199 92.653 62.2835C92.0274 65.4472 90.6811 68.4241 88.7186 70.9831C86.7561 73.5421 84.2302 75.6144 81.3371 77.039C78.4439 78.4636 75.2613 79.2022 72.0364 79.1975L72.0344 79.1975L37.0045 79.2913C37.004 79.2913 37.0036 79.2913 37.0031 79.2913C29.8842 79.2909 23.0569 76.4628 18.0231 71.4289C12.9889 66.3947 10.1607 59.5669 10.1607 52.4475C10.1607 45.3281 12.9889 38.5003 18.0231 33.4661C23.0572 28.4319 29.885 25.6038 37.0045 25.6038Z" stroke="#8FDAFF" stroke-opacity="0.1"/>
    <path d="M92.6814 63.9835C95.8742 52.5557 89.1985 40.7033 77.7706 37.5104C66.3428 34.3175 54.4904 40.9933 51.2975 52.4212C48.1047 63.849 54.7804 75.7014 66.2083 78.8943C77.6361 82.0871 89.4885 75.4114 92.6814 63.9835Z" fill="url(#paint1_linear_314_88)"/>
    <path d="M77.6361 37.992C88.798 41.1105 95.3184 52.6871 92.1998 63.849C89.0813 75.0109 77.5047 81.5313 66.3428 78.4127C55.1809 75.2942 48.6605 63.7176 51.7791 52.5557C54.8976 41.3938 66.4742 34.8734 77.6361 37.992Z" stroke="#8FDAFF" stroke-opacity="0.1"/>
    <path d="M56.8795 92.885C56.8795 93.6483 56.7291 94.4042 56.437 95.1094C56.1449 95.8146 55.7168 96.4553 55.177 96.9951C54.6373 97.5348 53.9965 97.963 53.2913 98.2551C52.5861 98.5472 51.8303 98.6975 51.067 98.6975C50.3036 98.6975 49.5478 98.5472 48.8426 98.2551C48.1374 97.963 47.4966 97.5348 46.9569 96.9951C46.4172 96.4553 45.989 95.8146 45.6969 95.1094C45.4048 94.4042 45.2545 93.6483 45.2545 92.885C45.2545 87.7913 49.942 83.0725 51.067 83.0725C52.192 83.0725 56.8795 87.76 56.8795 92.885Z" fill="#75D1FF"/>
    <path d="M56.8795 92.885C56.8795 93.6483 56.7291 94.4042 56.437 95.1094C56.1449 95.8146 55.7168 96.4553 55.177 96.9951C54.6373 97.5348 53.9965 97.963 53.2913 98.2551C52.5861 98.5472 51.8303 98.6975 51.067 98.6975C50.3036 98.6975 49.5478 98.5472 48.8426 98.2551C48.1374 97.963 47.4966 97.5348 46.9569 96.9951C46.4172 96.4553 45.989 95.8146 45.6969 95.1094C45.4048 94.4042 45.2545 93.6483 45.2545 92.885C45.2545 87.7913 49.942 83.0725 51.067 83.0725C52.192 83.0725 56.8795 87.76 56.8795 92.885Z" fill="url(#paint2_linear_314_88)" fill-opacity="0.5"/>
    <defs>
        <linearGradient id="paint0_linear_314_88" x1="30.1844" y1="82.1194" x2="63.1406" y2="39.4592" gradientUnits="userSpaceOnUse">
            <stop stop-color="#75D1FF" stop-opacity="0.95"/>
            <stop offset="1" stop-color="#EBF8FF"/>
        </linearGradient>
        <linearGradient id="paint1_linear_314_88" x1="80.7746" y1="50.5659" x2="55.8713" y2="72.2262" gradientUnits="userSpaceOnUse">
            <stop offset="0.02" stop-color="#8FDAFF"/>
            <stop offset="1" stop-color="#E0F5FF" stop-opacity="0"/>
        </linearGradient>
        <linearGradient id="paint2_linear_314_88" x1="54.6342" y1="86.8475" x2="47.0832" y2="96.8397" gradientUnits="userSpaceOnUse">
            <stop stop-color="#8DD5FE" stop-opacity="0"/>
            <stop offset="1" stop-color="#026C99"/>
        </linearGradient>
    </defs>
</svg>
