<svg width="101" height="101" viewBox="0 0 101 101" fill="none" xmlns="http://www.w3.org/2000/svg">
<path d="M63.1428 5.26001L63.1428 9.26001" stroke="#FCFC07" stroke-width="3" stroke-miterlimit="10" stroke-linecap="round"/>
<path d="M63.1428 53.26C74.1885 53.26 83.1428 44.3057 83.1428 33.26C83.1428 22.2143 74.1885 13.26 63.1428 13.26C52.0971 13.26 43.1428 22.2143 43.1428 33.26C43.1428 44.3057 52.0971 53.26 63.1428 53.26Z" fill="#FCFC07"/>
<path d="M91.1428 33.26L87.1428 33.26" stroke="#FCFC07" stroke-width="3" stroke-miterlimit="10" stroke-linecap="round"/>
<path d="M83.6428 13.26L80.1428 16.76" stroke="#FCFC07" stroke-width="3" stroke-miterlimit="10" stroke-linecap="round"/>
<path d="M46.6428 16.76L43.1428 13.26" stroke="#FCFC07" stroke-width="3" stroke-miterlimit="10" stroke-linecap="round"/>
<path d="M36.8616 25.1038C41.8422 25.0937 46.7309 26.4449 50.9994 29.0115C55.2679 31.5781 58.7537 35.2624 61.0803 39.6663C63.9306 37.9998 67.1267 37.0126 70.4203 36.7815C73.7139 36.5504 77.0165 37.0815 80.0716 38.3336C83.1267 39.5856 85.8522 41.525 88.0363 44.0011C90.2204 46.4773 91.8044 49.4234 92.6654 52.611C93.5263 55.7985 93.641 59.1415 93.0006 62.3805C92.3601 65.6196 90.9818 68.6674 88.9725 71.2874C86.9633 73.9074 84.3772 76.029 81.4151 77.4876C78.453 78.9461 75.1945 79.7023 71.8928 79.6975L36.8616 79.7913C29.6096 79.7913 22.6546 76.9104 17.5266 71.7825C12.3987 66.6545 9.51782 59.6995 9.51782 52.4475C9.51782 45.1955 12.3987 38.2405 17.5266 33.1126C22.6546 27.9846 29.6096 25.1038 36.8616 25.1038Z" fill="url(#paint0_linear_314_123)"/>
<path d="M36.8616 25.6038L36.8626 25.6038C41.7521 25.5938 46.5514 26.9204 50.7417 29.44C54.9321 31.9596 58.3542 35.5765 60.6382 39.8998L60.8821 40.3614L61.3327 40.0979C64.1167 38.4702 67.2383 37.506 70.4553 37.2803C73.6723 37.0545 76.898 37.5732 79.882 38.7962C82.866 40.0192 85.528 41.9134 87.6613 44.3319C89.7946 46.7504 91.3417 49.628 92.1827 52.7413C93.0236 55.8547 93.1356 59.1199 92.5101 62.2835C91.8845 65.4472 90.5382 68.4241 88.5758 70.9831C86.6133 73.5421 84.0874 75.6144 81.1942 77.039C78.301 78.4636 75.1184 79.2022 71.8936 79.1975L71.8915 79.1975L36.8616 79.2913C36.8611 79.2913 36.8607 79.2913 36.8602 79.2913C29.7413 79.2909 22.914 76.4628 17.8802 71.4289C12.846 66.3947 10.0178 59.5669 10.0178 52.4475C10.0178 45.3281 12.846 38.5003 17.8802 33.4661C22.9144 28.4319 29.7422 25.6038 36.8616 25.6038Z" stroke="#8FDAFF" stroke-opacity="0.1"/>
<path d="M92.5385 63.9835C95.7314 52.5557 89.0556 40.7033 77.6278 37.5104C66.1999 34.3175 54.3475 40.9933 51.1546 52.4212C47.9618 63.849 54.6376 75.7014 66.0654 78.8943C77.4932 82.0871 89.3457 75.4114 92.5385 63.9835Z" fill="url(#paint1_linear_314_123)"/>
<path d="M77.4932 37.992C88.6551 41.1105 95.1755 52.6871 92.057 63.849C88.9384 75.0109 77.3618 81.5313 66.1999 78.4127C55.0381 75.2942 48.5176 63.7176 51.6362 52.5557C54.7548 41.3938 66.3313 34.8734 77.4932 37.992Z" stroke="#8FDAFF" stroke-opacity="0.1"/>
<path d="M41.5491 93.4319C43.275 93.4319 44.6741 92.0328 44.6741 90.3069C44.6741 88.581 43.275 87.1819 41.5491 87.1819C39.8232 87.1819 38.4241 88.581 38.4241 90.3069C38.4241 92.0328 39.8232 93.4319 41.5491 93.4319Z" fill="#86D7FE"/>
<path d="M57.1741 97.3381C58.4685 97.3381 59.5178 96.2888 59.5178 94.9944C59.5178 93.7 58.4685 92.6506 57.1741 92.6506C55.8797 92.6506 54.8303 93.7 54.8303 94.9944C54.8303 96.2888 55.8797 97.3381 57.1741 97.3381Z" fill="#86D7FE"/>
<path d="M29.0491 86.4006C30.3435 86.4006 31.3928 85.3513 31.3928 84.0569C31.3928 82.7625 30.3435 81.7131 29.0491 81.7131C27.7547 81.7131 26.7053 82.7625 26.7053 84.0569C26.7053 85.3513 27.7547 86.4006 29.0491 86.4006Z" fill="#86D7FE"/>
<path d="M50.9241 85.6194C51.787 85.6194 52.4866 84.9198 52.4866 84.0569C52.4866 83.1939 51.787 82.4944 50.9241 82.4944C50.0611 82.4944 49.3616 83.1939 49.3616 84.0569C49.3616 84.9198 50.0611 85.6194 50.9241 85.6194Z" fill="white"/>
<path d="M72.7991 96.5569C73.662 96.5569 74.3616 95.8573 74.3616 94.9944C74.3616 94.1314 73.662 93.4319 72.7991 93.4319C71.9361 93.4319 71.2366 94.1314 71.2366 94.9944C71.2366 95.8573 71.9361 96.5569 72.7991 96.5569Z" fill="white"/>
<path d="M27.4866 96.5569C28.3495 96.5569 29.0491 95.8573 29.0491 94.9944C29.0491 94.1314 28.3495 93.4319 27.4866 93.4319C26.6236 93.4319 25.9241 94.1314 25.9241 94.9944C25.9241 95.8573 26.6236 96.5569 27.4866 96.5569Z" fill="white"/>
<path d="M66.5491 88.7444C68.275 88.7444 69.6741 87.3453 69.6741 85.6194C69.6741 83.8935 68.275 82.4944 66.5491 82.4944C64.8232 82.4944 63.4241 83.8935 63.4241 85.6194C63.4241 87.3453 64.8232 88.7444 66.5491 88.7444Z" fill="#86D7FE"/>
<defs>
<linearGradient id="paint0_linear_314_123" x1="30.0415" y1="82.1194" x2="62.9978" y2="39.4592" gradientUnits="userSpaceOnUse">
<stop stop-color="#75D1FF" stop-opacity="0.95"/>
<stop offset="1" stop-color="#EBF8FF"/>
</linearGradient>
<linearGradient id="paint1_linear_314_123" x1="80.6317" y1="50.5659" x2="55.7284" y2="72.2262" gradientUnits="userSpaceOnUse">
<stop offset="0.02" stop-color="#8FDAFF"/>
<stop offset="1" stop-color="#E0F5FF" stop-opacity="0"/>
</linearGradient>
</defs>
</svg>
