<svg width="101" height="101" viewBox="0 0 101 101" fill="none" xmlns="http://www.w3.org/2000/svg">
<path d="M37.3973 15.7288C42.37 15.7272 47.2489 17.0825 51.5083 19.6486C55.7677 22.2147 59.2463 25.8944 61.5692 30.2913C64.4223 28.6232 67.6218 27.6358 70.9188 27.406C74.2158 27.1762 77.5214 27.7102 80.5784 28.9663C83.6353 30.2225 86.3613 32.167 88.5441 34.6485C90.727 37.1301 92.3079 40.0817 93.1639 43.274C94.0199 46.4662 94.1279 49.8128 93.4795 53.0536C92.831 56.2944 91.4437 59.3418 89.4253 61.9589C87.407 64.576 84.812 66.6922 81.8424 68.1428C78.8727 69.5934 75.6085 70.3393 72.3035 70.3225L37.3192 70.4163C30.0671 70.4163 23.1122 67.5354 17.9842 62.4075C12.8563 57.2795 9.9754 50.3245 9.9754 43.0725C9.9754 35.8205 12.8563 28.8655 17.9842 23.7376C23.1122 18.6096 30.0671 15.7288 37.3192 15.7288H37.3973Z" fill="url(#paint0_linear_314_138)"/>
<path d="M37.3973 16.2288L37.3974 16.2288C42.2792 16.2272 47.0688 17.5577 51.2503 20.0769C55.4318 22.5961 58.8467 26.2084 61.1271 30.5248L61.3709 30.9864L61.8215 30.7229C64.6083 29.0936 67.7333 28.1293 70.9536 27.9048C74.1739 27.6804 77.4025 28.2019 80.3883 29.4288C83.3741 30.6557 86.0367 32.555 88.1687 34.9787C90.3008 37.4025 91.8449 40.2855 92.681 43.4035C93.5171 46.5214 93.6225 49.7902 92.9892 52.9555C92.3558 56.1208 91.0008 59.0974 89.0294 61.6536C87.058 64.2098 84.5235 66.2767 81.6229 67.6935C78.7224 69.1104 75.5341 69.8389 72.3061 69.8225L72.3022 69.8225L37.3192 69.9163C37.3187 69.9163 37.3183 69.9163 37.3178 69.9163C30.1989 69.9159 23.3716 67.0878 18.3378 62.0539C13.3036 57.0197 10.4754 50.1919 10.4754 43.0725C10.4754 35.9531 13.3036 29.1253 18.3378 24.0911C23.3719 19.0569 30.1997 16.2288 37.3192 16.2288H37.3973Z" stroke="#8FDAFF" stroke-opacity="0.1"/>
<path d="M93.081 54.6263C96.2739 43.1985 89.5981 31.346 78.1703 28.1532C66.7424 24.9603 54.89 31.6361 51.6972 43.0639C48.5043 54.4918 55.1801 66.3442 66.6079 69.537C78.0357 72.7299 89.8882 66.0541 93.081 54.6263Z" fill="url(#paint1_linear_314_138)"/>
<path d="M78.0357 28.6347C89.1976 31.7533 95.718 43.3299 92.5995 54.4917C89.4809 65.6536 77.9043 72.174 66.7425 69.0555C55.5806 65.9369 49.0602 54.3604 52.1787 43.1985C55.2973 32.0366 66.8738 25.5162 78.0357 28.6347Z" stroke="#8FDAFF" stroke-opacity="0.1"/>
<path d="M49.4285 74.26L39.1004 90.0586" stroke="#0BAEFF" stroke-width="3" stroke-miterlimit="10" stroke-linecap="round"/>
<path d="M38.7567 74.26L33.4285 82.26" stroke="#0BAEFF" stroke-width="3" stroke-miterlimit="10" stroke-linecap="round"/>
<path d="M59.7567 74.26L49.4285 90.0586" stroke="#0BAEFF" stroke-width="3" stroke-miterlimit="10" stroke-linecap="round"/>
<path d="M69.7567 74.26L59.4285 90.0586" stroke="#0BAEFF" stroke-width="3" stroke-miterlimit="10" stroke-linecap="round"/>
<defs>
<linearGradient id="paint0_linear_314_138" x1="30.5067" y1="72.7444" x2="63.4598" y2="30.0725" gradientUnits="userSpaceOnUse">
<stop stop-color="#75D1FF" stop-opacity="0.95"/>
<stop offset="1" stop-color="#EBF8FF"/>
</linearGradient>
<linearGradient id="paint1_linear_314_138" x1="81.1742" y1="41.2087" x2="56.2709" y2="62.8689" gradientUnits="userSpaceOnUse">
<stop offset="0.02" stop-color="#8FDAFF"/>
<stop offset="1" stop-color="#E0F5FF" stop-opacity="0"/>
</linearGradient>
</defs>
</svg>
