<svg width="101" height="101" viewBox="0 0 101 101" fill="none" xmlns="http://www.w3.org/2000/svg">
<path d="M63.5714 5.26001L63.5714 9.26001" stroke="#FCFC07" stroke-width="3" stroke-miterlimit="10" stroke-linecap="round"/>
<path d="M63.5714 53.26C74.6171 53.26 83.5714 44.3057 83.5714 33.26C83.5714 22.2143 74.6171 13.26 63.5714 13.26C52.5257 13.26 43.5714 22.2143 43.5714 33.26C43.5714 44.3057 52.5257 53.26 63.5714 53.26Z" fill="#FCFC07"/>
<path d="M91.5714 33.26L87.5714 33.26" stroke="#FCFC07" stroke-width="3" stroke-miterlimit="10" stroke-linecap="round"/>
<path d="M84.0714 13.26L80.5714 16.76" stroke="#FCFC07" stroke-width="3" stroke-miterlimit="10" stroke-linecap="round"/>
<path d="M47.0714 16.76L43.5714 13.26" stroke="#FCFC07" stroke-width="3" stroke-miterlimit="10" stroke-linecap="round"/>
<path d="M37.2902 25.1038C42.2708 25.0937 47.1595 26.4449 51.428 29.0115C55.6965 31.5781 59.1823 35.2624 61.5089 39.6663C64.3592 37.9998 67.5553 37.0126 70.8489 36.7815C74.1425 36.5504 77.4451 37.0815 80.5002 38.3336C83.5553 39.5856 86.2808 41.525 88.4649 44.0011C90.649 46.4773 92.233 49.4234 93.094 52.611C93.9549 55.7985 94.0696 59.1415 93.4292 62.3805C92.7887 65.6196 91.4104 68.6674 89.4011 71.2874C87.3918 73.9074 84.8058 76.029 81.8437 77.4876C78.8816 78.9461 75.6231 79.7023 72.3214 79.6975L37.2902 79.7913C30.0381 79.7913 23.0832 76.9104 17.9552 71.7825C12.8273 66.6545 9.94641 59.6995 9.94641 52.4475C9.94641 45.1955 12.8273 38.2405 17.9552 33.1126C23.0832 27.9846 30.0381 25.1038 37.2902 25.1038Z" fill="url(#paint0_linear_314_97)"/>
<path d="M37.2902 25.6038L37.2912 25.6038C42.1807 25.5938 46.98 26.9204 51.1703 29.44C55.3607 31.9596 58.7828 35.5765 61.0668 39.8998L61.3106 40.3614L61.7613 40.0979C64.5452 38.4702 67.6669 37.506 70.8839 37.2803C74.1009 37.0545 77.3266 37.5732 80.3106 38.7962C83.2946 40.0192 85.9566 41.9134 88.0899 44.3319C90.2232 46.7504 91.7703 49.628 92.6113 52.7413C93.4522 55.8547 93.5642 59.1199 92.9387 62.2835C92.3131 65.4472 90.9668 68.4241 89.0043 70.9831C87.0418 73.5421 84.516 75.6144 81.6228 77.039C78.7296 78.4636 75.547 79.2022 72.3221 79.1975L72.3201 79.1975L37.2902 79.2913C37.2897 79.2913 37.2893 79.2913 37.2888 79.2913C30.1699 79.2909 23.3426 76.4628 18.3088 71.4289C13.2746 66.3947 10.4464 59.5669 10.4464 52.4475C10.4464 45.3281 13.2746 38.5003 18.3088 33.4661C23.3429 28.4319 30.1708 25.6038 37.2902 25.6038Z" stroke="#8FDAFF" stroke-opacity="0.1"/>
<path d="M92.9671 63.9835C96.16 52.5557 89.4842 40.7033 78.0563 37.5104C66.6285 34.3175 54.7761 40.9933 51.5832 52.4212C48.3904 63.849 55.0661 75.7014 66.494 78.8943C77.9218 82.0871 89.7742 75.4114 92.9671 63.9835Z" fill="url(#paint1_linear_314_97)"/>
<path d="M77.9218 37.992C89.0837 41.1105 95.6041 52.6871 92.4855 63.849C89.367 75.0109 77.7904 81.5313 66.6285 78.4127C55.4666 75.2942 48.9462 63.7176 52.0648 52.5557C55.1833 41.3938 66.7599 34.8734 77.9218 37.992Z" stroke="#8FDAFF" stroke-opacity="0.1"/>
<path d="M51.3527 86.9788V88.5413" stroke="#0BAEFF" stroke-width="3" stroke-miterlimit="10" stroke-linecap="round"/>
<path d="M41.9777 83.8538V85.4163" stroke="#0BAEFF" stroke-width="3" stroke-miterlimit="10" stroke-linecap="round"/>
<path d="M60.7277 83.8538V85.4163" stroke="#0BAEFF" stroke-width="3" stroke-miterlimit="10" stroke-linecap="round"/>
<path d="M60.7277 93.2288V94.7913" stroke="#0BAEFF" stroke-width="3" stroke-miterlimit="10" stroke-linecap="round"/>
<path d="M41.9777 93.2288V94.7913" stroke="#0BAEFF" stroke-width="3" stroke-miterlimit="10" stroke-linecap="round"/>
<path d="M51.3527 96.3538V97.9163" stroke="#0BAEFF" stroke-width="3" stroke-miterlimit="10" stroke-linecap="round"/>
<defs>
<linearGradient id="paint0_linear_314_97" x1="30.4701" y1="82.1194" x2="63.4263" y2="39.4592" gradientUnits="userSpaceOnUse">
<stop stop-color="#75D1FF" stop-opacity="0.95"/>
<stop offset="1" stop-color="#EBF8FF"/>
</linearGradient>
<linearGradient id="paint1_linear_314_97" x1="81.0603" y1="50.5659" x2="56.157" y2="72.2262" gradientUnits="userSpaceOnUse">
<stop offset="0.02" stop-color="#8FDAFF"/>
<stop offset="1" stop-color="#E0F5FF" stop-opacity="0"/>
</linearGradient>
</defs>
</svg>
