<svg width="101" height="101" viewBox="0 0 101 101" fill="none" xmlns="http://www.w3.org/2000/svg">
<path d="M63.8571 5.26001L63.8571 9.26001" stroke="#FCFC07" stroke-width="3" stroke-miterlimit="10" stroke-linecap="round"/>
<path d="M63.8571 53.26C74.9028 53.26 83.8571 44.3057 83.8571 33.26C83.8571 22.2143 74.9028 13.26 63.8571 13.26C52.8114 13.26 43.8571 22.2143 43.8571 33.26C43.8571 44.3057 52.8114 53.26 63.8571 53.26Z" fill="#FCFC07"/>
<path d="M91.8571 33.26L87.8571 33.26" stroke="#FCFC07" stroke-width="3" stroke-miterlimit="10" stroke-linecap="round"/>
<path d="M84.3571 13.26L80.8571 16.76" stroke="#FCFC07" stroke-width="3" stroke-miterlimit="10" stroke-linecap="round"/>
<path d="M47.3571 16.76L43.8571 13.26" stroke="#FCFC07" stroke-width="3" stroke-miterlimit="10" stroke-linecap="round"/>
<path d="M37.5759 25.1038C42.5565 25.0937 47.4452 26.4449 51.7137 29.0115C55.9822 31.5781 59.468 35.2624 61.7946 39.6663C64.6449 37.9998 67.841 37.0126 71.1346 36.7815C74.4282 36.5504 77.7308 37.0815 80.7859 38.3336C83.841 39.5856 86.5665 41.525 88.7506 44.0011C90.9347 46.4773 92.5187 49.4234 93.3797 52.611C94.2406 55.7985 94.3553 59.1415 93.7149 62.3805C93.0744 65.6196 91.6961 68.6674 89.6868 71.2874C87.6776 73.9074 85.0915 76.029 82.1294 77.4876C79.1673 78.9461 75.9088 79.7023 72.6071 79.6975L37.5759 79.7913C30.3239 79.7913 23.3689 76.9104 18.2409 71.7825C13.113 66.6545 10.2321 59.6995 10.2321 52.4475C10.2321 45.1955 13.113 38.2405 18.2409 33.1126C23.3689 27.9846 30.3239 25.1038 37.5759 25.1038Z" fill="url(#paint0_linear_314_111)"/>
<path d="M37.5759 25.6038L37.5769 25.6038C42.4664 25.5938 47.2657 26.9204 51.456 29.44C55.6464 31.9596 59.0685 35.5765 61.3525 39.8998L61.5964 40.3614L62.047 40.0979C64.831 38.4702 67.9526 37.506 71.1696 37.2803C74.3866 37.0545 77.6123 37.5732 80.5963 38.7962C83.5803 40.0192 86.2423 41.9134 88.3756 44.3319C90.5089 46.7504 92.056 49.628 92.897 52.7413C93.7379 55.8547 93.8499 59.1199 93.2244 62.2835C92.5988 65.4472 91.2525 68.4241 89.29 70.9831C87.3276 73.5421 84.8017 75.6144 81.9085 77.039C79.0153 78.4636 75.8327 79.2022 72.6078 79.1975L72.6058 79.1975L37.5759 79.2913C37.5754 79.2913 37.575 79.2913 37.5745 79.2913C30.4556 79.2909 23.6283 76.4628 18.5945 71.4289C13.5603 66.3947 10.7321 59.5669 10.7321 52.4475C10.7321 45.3281 13.5603 38.5003 18.5945 33.4661C23.6286 28.4319 30.4565 25.6038 37.5759 25.6038Z" stroke="#8FDAFF" stroke-opacity="0.1"/>
<path d="M93.2528 63.9835C96.4457 52.5557 89.7699 40.7033 78.3421 37.5104C66.9142 34.3175 55.0618 40.9933 51.8689 52.4212C48.6761 63.849 55.3518 75.7014 66.7797 78.8943C78.2075 82.0871 90.06 75.4114 93.2528 63.9835Z" fill="url(#paint1_linear_314_111)"/>
<path d="M78.2075 37.992C89.3694 41.1105 95.8898 52.6871 92.7713 63.849C89.6527 75.0109 78.0761 81.5313 66.9142 78.4127C55.7523 75.2942 49.2319 63.7176 52.3505 52.5557C55.4691 41.3938 67.0456 34.8734 78.2075 37.992Z" stroke="#8FDAFF" stroke-opacity="0.1"/>
<path d="M59.9821 85.4163H75.9509" stroke="#A5A9AA" stroke-width="3" stroke-miterlimit="10" stroke-linecap="round"/>
<path d="M25.7634 85.4163H52.0134" stroke="#B9C1C6" stroke-width="3" stroke-miterlimit="10" stroke-linecap="round"/>
<path d="M52.779 93.2288H70.4665" stroke="#A5A9AA" stroke-width="3" stroke-miterlimit="10" stroke-linecap="round"/>
<path d="M32.0446 93.2288H44.0602" stroke="#A5A9AA" stroke-width="3" stroke-miterlimit="10" stroke-linecap="round"/>
<defs>
<linearGradient id="paint0_linear_314_111" x1="30.7558" y1="82.1194" x2="63.7121" y2="39.4592" gradientUnits="userSpaceOnUse">
<stop stop-color="#75D1FF" stop-opacity="0.95"/>
<stop offset="1" stop-color="#EBF8FF"/>
</linearGradient>
<linearGradient id="paint1_linear_314_111" x1="81.346" y1="50.5659" x2="56.4427" y2="72.2262" gradientUnits="userSpaceOnUse">
<stop offset="0.02" stop-color="#8FDAFF"/>
<stop offset="1" stop-color="#E0F5FF" stop-opacity="0"/>
</linearGradient>
</defs>
</svg>
